<svg width="400" height="400" viewBox="0 0 400 400" fill="none" xmlns="http://www.w3.org/2000/svg">
<path d="M0 40C0 17.9086 17.9086 0 40 0H360C382.091 0 400 17.9086 400 40V360C400 382.091 382.091 400 360 400H40C17.9086 400 0 382.091 0 360V40Z" fill="white"/>
<path d="M255.966 178.332C261.959 175.437 268.947 175.437 274.94 178.332C280.154 180.851 282.981 185.24 284.385 187.601C285.545 189.55 286.727 191.922 287.901 194.358L289.071 196.801L289.072 196.801L330.748 283.97L330.749 283.97L358.573 342.17C362.039 349.418 358.973 358.106 351.726 361.573C344.48 365.039 335.796 361.974 332.329 354.724L308.46 304.798H222.446L198.577 354.724C195.11 361.974 186.426 365.039 179.179 361.573C171.932 358.106 168.867 349.418 172.333 342.17L241.834 196.801C243.389 193.552 244.975 190.199 246.52 187.601C247.924 185.24 250.752 180.85 255.966 178.332ZM127.274 86.5497C127.274 78.514 133.786 72 141.819 72C149.852 72 156.364 78.514 156.364 86.5497V101.099H229.09C237.123 101.099 243.635 107.614 243.635 115.65C243.635 123.685 237.123 130.199 229.09 130.199H204.774C197.323 165.511 183.637 198.105 164.578 226.762C168.729 229.317 172.854 231.521 176.87 233.326C184.198 236.619 187.47 245.231 184.177 252.561C180.885 259.891 172.276 263.163 164.949 259.87C158.945 257.172 152.957 253.888 147.104 250.147C123.73 278.08 94.6548 301.107 61.0212 317.827C53.8275 321.403 45.0978 318.468 41.5229 311.272C37.948 304.077 40.8818 295.344 48.0754 291.767C77.7369 277.022 103.344 256.839 123.999 232.419C107.433 217.416 92.9399 198.818 84.7854 179.512C81.6589 172.11 85.123 163.574 92.5226 160.446C99.9223 157.319 108.455 160.784 111.582 168.186C117.474 182.135 128.341 196.632 141.47 208.956C156.804 185.469 168.193 158.963 174.97 130.199H54.5483C46.5153 130.199 40.0034 123.685 40.0033 115.65C40.0033 107.614 46.5152 101.099 54.5483 101.099H127.274V86.5497ZM236.359 275.698H294.546L265.453 214.846L236.359 275.698Z" fill="black"/>
</svg>
